<svg id="svg" version="1.1" xmlns="http://www.w3.org/2000/svg" xmlns:xlink="http://www.w3.org/1999/xlink" width="400" height="400" viewBox="0, 0, 400,400"><g id="svgg"><path id="path0" d="M239.055 222.200 C 238.912 222.573,238.303 222.800,237.443 222.800 C 236.683 222.800,235.192 222.969,234.131 223.176 C 231.688 223.651,227.951 224.232,223.600 224.813 C 216.513 225.759,214.876 226.526,213.772 229.418 C 211.855 234.437,215.671 237.769,222.284 236.849 C 235.609 234.995,239.229 234.420,240.600 233.940 C 241.260 233.708,242.247 233.418,242.793 233.295 C 243.997 233.024,244.800 232.277,244.800 231.429 C 244.800 231.083,244.980 230.800,245.200 230.800 C 245.422 230.800,245.600 229.733,245.600 228.400 C 245.600 227.067,245.422 226.000,245.200 226.000 C 244.980 226.000,244.800 225.730,244.800 225.400 C 244.800 225.070,244.620 224.800,244.400 224.800 C 244.180 224.800,244.000 224.440,244.000 224.000 C 244.000 223.467,243.733 223.200,243.200 223.200 C 242.760 223.200,242.399 223.065,242.397 222.900 C 242.387 221.954,239.390 221.327,239.055 222.200 M246.786 243.772 C 246.464 244.086,244.850 244.533,243.200 244.765 C 225.011 247.320,224.137 247.614,223.421 251.427 C 222.280 257.512,226.093 259.336,236.400 257.635 C 244.326 256.327,250.287 255.599,251.284 255.818 C 252.161 256.011,252.608 255.878,253.121 255.270 C 253.495 254.829,254.154 254.047,254.587 253.534 C 255.501 252.450,255.724 246.775,254.864 246.488 C 254.609 246.403,254.400 246.170,254.400 245.971 C 254.400 245.379,253.085 244.024,252.726 244.246 C 252.544 244.359,252.286 244.169,252.154 243.825 C 251.833 242.988,247.632 242.946,246.786 243.772 M73.700 247.398 C 73.425 247.711,73.200 248.178,73.200 248.436 C 73.200 248.695,72.884 249.197,72.497 249.553 C 72.111 249.909,71.544 250.689,71.237 251.286 C 70.930 251.884,70.527 252.278,70.340 252.163 C 70.153 252.047,70.000 252.284,70.000 252.688 C 70.000 253.093,69.640 253.683,69.200 254.000 C 68.760 254.317,68.400 254.814,68.400 255.105 C 68.400 255.396,68.040 256.020,67.600 256.492 C 67.160 256.964,66.800 257.587,66.800 257.875 C 66.800 258.164,66.650 258.400,66.468 258.400 C 66.285 258.400,65.881 258.895,65.570 259.500 C 65.260 260.105,64.734 260.870,64.403 261.200 C 64.071 261.530,63.440 262.520,63.000 263.400 C 62.560 264.280,61.885 265.349,61.500 265.775 C 61.115 266.202,60.800 266.787,60.800 267.075 C 60.800 267.364,60.620 267.600,60.400 267.600 C 60.180 267.600,60.000 267.870,60.000 268.200 C 60.000 268.927,59.348 268.996,59.060 268.300 C 58.947 268.025,58.954 268.385,59.077 269.100 C 59.219 269.928,59.137 270.400,58.850 270.400 C 58.548 270.400,58.400 271.652,58.400 274.200 C 58.400 276.610,58.555 278.000,58.824 278.000 C 59.071 278.000,59.169 278.503,59.059 279.202 C 58.953 279.872,59.031 280.305,59.234 280.179 C 59.435 280.055,60.669 281.044,61.977 282.377 C 63.285 283.710,64.507 284.800,64.692 284.800 C 64.877 284.800,65.830 285.504,66.810 286.365 C 67.790 287.225,68.689 287.869,68.809 287.794 C 68.929 287.720,69.446 288.186,69.958 288.830 C 70.471 289.473,71.158 290.000,71.485 290.000 C 71.812 290.000,72.583 290.540,73.200 291.200 C 73.817 291.860,74.527 292.400,74.779 292.400 C 75.471 292.400,77.278 294.351,77.001 294.799 C 76.863 295.022,77.026 295.088,77.379 294.953 C 77.721 294.822,78.000 294.914,78.000 295.157 C 78.000 295.401,78.278 295.600,78.618 295.600 C 79.401 295.600,81.317 297.487,81.021 297.966 C 80.899 298.164,81.114 298.247,81.499 298.152 C 81.907 298.050,82.734 298.484,83.478 299.189 C 84.181 299.855,84.957 300.400,85.202 300.400 C 85.447 300.400,85.536 300.580,85.400 300.800 C 85.264 301.020,85.400 301.200,85.702 301.200 C 86.003 301.200,86.768 301.740,87.400 302.400 C 88.032 303.060,88.763 303.600,89.025 303.600 C 89.286 303.600,90.187 304.230,91.028 305.000 C 91.869 305.770,92.719 306.400,92.918 306.400 C 93.116 306.400,93.783 306.940,94.400 307.600 C 95.017 308.260,95.692 308.800,95.901 308.800 C 96.110 308.800,96.846 309.340,97.537 310.000 C 98.228 310.660,98.912 311.200,99.059 311.200 C 99.205 311.200,100.031 311.920,100.893 312.800 C 101.756 313.680,102.637 314.400,102.852 314.400 C 103.067 314.400,103.819 314.939,104.522 315.598 C 105.225 316.257,105.935 316.797,106.099 316.798 C 106.264 316.799,107.163 317.520,108.097 318.400 C 109.031 319.280,109.933 320.000,110.101 320.000 C 110.269 320.000,110.931 320.467,111.571 321.037 C 112.211 321.607,112.794 322.020,112.867 321.955 C 113.015 321.823,114.411 322.927,115.832 324.300 C 116.344 324.795,116.880 325.200,117.021 325.200 C 117.163 325.200,117.783 325.740,118.400 326.400 C 119.017 327.060,119.737 327.600,120.000 327.600 C 120.263 327.600,120.983 328.140,121.600 328.800 C 122.217 329.460,122.933 330.000,123.192 330.000 C 123.451 330.000,124.354 330.720,125.200 331.600 C 126.046 332.480,126.944 333.200,127.197 333.200 C 127.882 333.200,128.817 334.264,128.664 334.870 C 128.591 335.162,128.607 335.265,128.699 335.100 C 129.033 334.503,129.600 334.818,129.600 335.600 C 129.600 336.040,129.791 336.400,130.024 336.400 C 130.257 336.400,130.336 336.220,130.200 336.000 C 129.576 334.990,131.051 335.754,132.325 337.100 C 133.106 337.925,133.899 338.553,134.086 338.495 C 134.592 338.340,136.479 340.348,136.221 340.766 C 136.099 340.964,136.358 341.032,136.796 340.917 C 137.343 340.774,137.958 341.099,138.757 341.954 C 139.397 342.639,140.119 343.200,140.360 343.200 C 140.602 343.200,140.800 343.380,140.800 343.600 C 140.800 343.820,140.998 344.000,141.240 344.000 C 141.481 344.000,142.183 344.540,142.800 345.200 C 143.417 345.860,144.137 346.400,144.400 346.400 C 144.663 346.400,145.383 346.940,146.000 347.600 C 146.617 348.260,147.319 348.800,147.560 348.800 C 147.802 348.800,148.000 348.980,148.000 349.200 C 148.000 349.420,148.204 349.600,148.453 349.600 C 148.931 349.600,150.400 351.118,150.400 351.611 C 150.400 351.770,150.903 352.001,151.518 352.124 C 152.160 352.252,152.870 352.784,153.186 353.374 C 153.488 353.938,154.046 354.400,154.425 354.400 C 155.228 354.400,157.600 356.494,157.600 357.203 C 157.600 357.480,157.871 357.581,158.238 357.441 C 158.644 357.285,159.283 357.632,159.998 358.398 C 160.616 359.059,161.333 359.600,161.592 359.600 C 161.851 359.600,162.754 360.320,163.600 361.200 C 164.446 362.080,165.330 362.800,165.565 362.800 C 165.801 362.800,166.218 363.160,166.493 363.600 C 166.768 364.040,167.219 364.400,167.496 364.400 C 167.773 364.400,168.000 364.580,168.000 364.800 C 168.000 365.020,168.194 365.200,168.431 365.200 C 168.669 365.200,169.576 365.920,170.447 366.800 C 171.318 367.680,172.278 368.400,172.580 368.400 C 172.882 368.400,173.559 368.912,174.085 369.537 C 174.612 370.162,175.495 370.787,176.048 370.926 C 176.601 371.065,177.299 371.638,177.600 372.200 C 177.901 372.762,178.609 373.334,179.173 373.472 C 179.738 373.609,180.631 374.234,181.158 374.861 C 181.685 375.487,182.288 376.000,182.498 376.000 C 182.707 376.000,183.383 376.540,184.000 377.200 C 184.617 377.860,185.337 378.400,185.600 378.400 C 185.863 378.400,186.583 378.940,187.200 379.600 C 187.817 380.260,188.519 380.800,188.760 380.800 C 189.002 380.800,189.200 380.980,189.200 381.200 C 189.200 381.420,189.398 381.600,189.640 381.600 C 189.881 381.600,190.583 382.140,191.200 382.800 C 191.817 383.460,192.527 384.000,192.779 384.000 C 193.443 384.000,195.283 385.942,195.021 386.366 C 194.899 386.564,195.153 386.633,195.587 386.519 C 196.117 386.381,196.787 386.726,197.636 387.575 C 198.330 388.268,198.993 388.741,199.109 388.624 C 199.225 388.508,199.705 388.828,200.175 389.335 C 200.645 389.842,201.248 390.184,201.515 390.095 C 201.782 390.006,202.000 390.128,202.000 390.367 C 202.000 390.605,202.360 390.800,202.800 390.800 C 203.240 390.800,203.600 390.980,203.600 391.200 C 203.600 391.420,203.881 391.600,204.224 391.600 C 204.567 391.600,204.736 391.780,204.600 392.000 C 204.460 392.227,204.796 392.400,205.376 392.400 C 205.939 392.400,206.400 392.580,206.400 392.800 C 206.400 393.020,206.760 393.200,207.200 393.200 C 207.640 393.200,208.000 393.380,208.000 393.600 C 208.000 393.820,208.360 394.000,208.800 394.000 C 209.240 394.000,209.600 394.245,209.600 394.545 C 209.600 394.910,209.929 395.026,210.600 394.898 C 211.184 394.786,211.600 394.893,211.600 395.153 C 211.600 395.399,212.050 395.600,212.600 395.600 C 213.150 395.600,213.600 395.780,213.600 396.000 C 213.600 396.220,214.050 396.400,214.600 396.400 C 215.150 396.400,215.600 396.580,215.600 396.800 C 215.600 397.020,216.230 397.200,217.000 397.200 C 217.770 397.200,218.400 397.380,218.400 397.600 C 218.400 397.820,219.030 398.000,219.800 398.000 C 220.570 398.000,221.200 398.180,221.200 398.400 C 221.200 398.620,221.995 398.800,222.967 398.800 C 224.024 398.800,224.800 399.001,224.900 399.300 C 225.120 399.961,343.484 400.276,344.143 399.617 C 344.372 399.388,344.839 399.196,345.180 399.190 C 346.333 399.172,349.542 396.441,350.675 394.515 L 351.800 392.600 352.000 383.000 L 352.200 373.400 363.518 373.400 L 374.837 373.400 374.778 360.720 C 374.745 353.746,374.572 347.986,374.392 347.920 C 374.213 347.854,374.022 346.900,373.967 345.800 C 373.913 344.700,373.717 343.495,373.531 343.121 C 373.346 342.748,373.157 341.983,373.110 341.421 C 373.064 340.860,372.924 340.400,372.800 340.400 C 372.676 340.400,372.534 339.905,372.484 339.300 C 372.434 338.695,372.215 338.140,371.997 338.067 C 371.778 337.993,371.600 337.318,371.600 336.567 C 371.600 335.815,371.420 335.200,371.200 335.200 C 370.980 335.200,370.800 334.935,370.800 334.612 C 370.800 334.289,370.440 333.383,370.000 332.600 C 369.560 331.817,369.200 330.911,369.200 330.588 C 369.200 330.265,369.020 330.000,368.800 330.000 C 368.580 330.000,368.400 329.640,368.400 329.200 C 368.400 328.760,368.220 328.400,368.000 328.400 C 367.780 328.400,367.600 328.106,367.600 327.747 C 367.600 327.388,367.228 326.771,366.774 326.377 C 366.319 325.983,365.959 325.557,365.974 325.430 C 366.064 324.636,365.951 324.383,365.600 324.600 C 365.380 324.736,365.200 324.477,365.200 324.024 C 365.200 323.571,365.050 323.200,364.868 323.200 C 364.685 323.200,364.280 322.705,363.968 322.100 C 363.655 321.495,362.911 320.529,362.314 319.953 C 361.717 319.377,361.342 318.792,361.481 318.653 C 361.620 318.514,361.476 318.400,361.162 318.400 C 360.847 318.400,360.412 318.077,360.195 317.681 C 359.022 315.546,358.130 314.451,356.918 313.656 C 356.176 313.170,355.680 312.594,355.815 312.376 C 355.949 312.159,355.911 312.026,355.730 312.083 C 355.548 312.139,354.980 311.829,354.466 311.393 C 353.953 310.957,353.160 310.285,352.705 309.900 C 352.250 309.515,351.725 309.200,351.539 309.200 C 350.900 309.200,350.598 309.014,349.441 307.908 C 348.803 307.299,348.038 306.800,347.741 306.800 C 347.443 306.800,347.200 306.620,347.200 306.400 C 347.200 306.180,346.919 306.000,346.576 306.000 C 346.207 306.000,346.069 305.812,346.238 305.538 C 346.407 305.264,346.349 305.185,346.094 305.342 C 345.858 305.488,345.380 305.323,345.032 304.975 C 344.685 304.627,344.400 304.456,344.400 304.594 C 344.400 304.825,342.060 303.660,341.600 303.200 C 341.067 302.667,339.527 302.000,338.829 302.000 C 338.399 302.000,337.936 301.820,337.800 301.600 C 337.664 301.380,337.193 301.200,336.753 301.200 C 336.308 301.200,336.065 301.018,336.206 300.790 C 336.345 300.565,336.311 300.406,336.130 300.437 C 335.181 300.602,333.579 300.357,333.755 300.074 C 333.865 299.894,333.111 299.704,332.078 299.652 C 331.045 299.600,330.140 299.387,330.067 299.179 C 329.993 298.970,329.153 298.800,328.200 298.800 C 327.247 298.800,326.407 298.632,326.333 298.428 C 326.260 298.223,324.636 298.008,322.725 297.949 C 320.813 297.891,319.322 297.726,319.411 297.583 C 319.499 297.440,318.557 297.289,317.317 297.249 C 316.077 297.208,314.947 297.362,314.806 297.591 C 314.664 297.820,313.120 298.173,311.374 298.376 C 307.334 298.845,300.656 300.392,296.600 301.799 C 279.368 307.774,264.416 324.201,260.370 341.600 C 258.824 348.250,258.722 349.294,258.464 361.200 L 258.200 373.400 253.600 373.378 C 248.767 373.354,244.351 372.989,242.000 372.420 C 241.230 372.234,239.700 371.876,238.600 371.626 C 235.641 370.953,231.055 369.522,230.620 369.137 C 230.411 368.951,230.007 368.800,229.722 368.800 C 227.011 368.800,217.478 362.907,206.400 354.381 C 201.084 350.290,193.774 344.595,193.600 344.409 C 193.490 344.291,191.870 343.039,190.000 341.626 C 185.754 338.417,180.336 334.228,171.363 327.217 C 169.803 325.997,167.930 324.550,167.202 324.000 C 166.473 323.450,162.799 320.616,159.038 317.702 C 155.277 314.788,150.965 311.458,149.455 310.302 C 147.945 309.146,146.505 308.008,146.255 307.773 C 144.157 305.804,143.299 305.775,141.600 307.617 C 140.846 308.434,138.113 308.787,136.634 308.258 C 135.322 307.789,126.694 301.801,125.089 300.247 C 124.820 299.987,123.970 299.338,123.200 298.806 C 122.430 298.274,121.710 297.739,121.600 297.618 C 121.490 297.497,120.320 296.589,119.000 295.600 C 117.680 294.611,116.510 293.703,116.400 293.582 C 116.290 293.461,115.570 292.929,114.800 292.400 C 114.030 291.871,113.310 291.331,113.200 291.200 C 113.090 291.069,112.370 290.529,111.600 290.000 C 110.830 289.471,110.110 288.926,110.000 288.788 C 109.890 288.650,107.640 286.932,105.000 284.970 C 102.360 283.009,100.110 281.304,100.000 281.183 C 99.890 281.061,99.170 280.529,98.400 280.000 C 97.630 279.471,96.910 278.931,96.800 278.800 C 96.690 278.669,95.970 278.127,95.200 277.595 C 93.081 276.132,89.600 272.387,89.600 271.570 C 89.600 271.172,89.420 270.736,89.200 270.600 C 88.980 270.464,88.800 269.013,88.800 267.376 C 88.800 265.659,88.969 264.400,89.200 264.400 C 89.989 264.400,89.554 263.780,87.937 262.600 C 78.898 256.001,76.000 253.035,75.436 249.800 C 74.887 246.647,74.650 246.320,73.700 247.398 M254.275 264.949 C 254.069 265.485,252.222 265.901,246.000 266.811 C 244.350 267.052,242.010 267.410,240.800 267.607 C 239.590 267.804,237.801 268.071,236.825 268.199 C 232.829 268.726,230.800 270.754,230.800 274.222 C 230.800 279.194,234.285 280.642,242.800 279.207 C 251.785 277.693,255.110 277.210,257.666 277.048 C 260.049 276.897,262.000 275.612,262.000 274.195 C 262.000 273.842,262.180 273.664,262.400 273.800 C 262.651 273.955,262.800 273.079,262.800 271.447 C 262.800 270.017,262.620 268.736,262.400 268.600 C 262.180 268.464,262.000 268.081,262.000 267.748 C 262.000 265.634,254.987 263.093,254.275 264.949 M373.772 392.128 C 373.452 392.963,373.852 393.508,374.390 392.970 C 374.617 392.743,374.623 392.361,374.405 392.008 C 374.098 391.511,374.002 391.530,373.772 392.128 M372.800 394.400 C 372.800 394.620,373.070 394.800,373.400 394.800 C 373.730 394.800,374.000 394.620,374.000 394.400 C 374.000 394.180,373.730 394.000,373.400 394.000 C 373.070 394.000,372.800 394.180,372.800 394.400 M370.538 397.409 C 369.005 399.008,368.776 399.600,369.690 399.600 C 369.887 399.600,369.936 399.420,369.800 399.200 C 369.664 398.980,369.821 398.800,370.149 398.800 C 370.478 398.800,370.860 398.440,371.000 398.000 C 371.140 397.560,371.468 397.200,371.731 397.200 C 371.993 397.200,372.432 396.840,372.707 396.400 C 373.615 394.946,372.323 395.547,370.538 397.409 " stroke="none" fill="#fae9c8" fill-rule="evenodd"></path><path id="path1" d="M96.600 139.200 C 96.464 139.420,96.003 139.600,95.576 139.600 C 95.149 139.600,94.800 139.780,94.800 140.000 C 94.800 140.220,94.530 140.400,94.200 140.400 C 93.870 140.400,93.600 140.567,93.600 140.771 C 93.600 140.976,93.285 141.458,92.900 141.843 C 92.348 142.395,92.200 143.231,92.200 145.800 C 92.200 148.369,92.348 149.205,92.900 149.757 C 93.285 150.142,93.600 150.624,93.600 150.829 C 93.600 151.033,93.870 151.200,94.200 151.200 C 94.530 151.200,94.800 151.380,94.800 151.600 C 94.800 151.820,95.149 152.000,95.576 152.000 C 96.003 152.000,96.464 152.180,96.600 152.400 C 96.753 152.648,100.337 152.800,106.024 152.800 C 111.875 152.800,115.200 152.655,115.200 152.400 C 115.200 152.180,115.560 152.000,116.000 152.000 C 116.440 152.000,116.800 151.841,116.800 151.647 C 116.800 151.452,117.115 151.210,117.500 151.107 C 119.177 150.662,121.158 143.200,119.600 143.200 C 119.380 143.200,119.200 142.930,119.200 142.600 C 119.200 142.270,119.032 142.000,118.827 142.000 C 118.622 142.000,118.340 141.640,118.200 141.200 C 118.060 140.760,117.688 140.400,117.373 140.400 C 117.058 140.400,116.800 140.220,116.800 140.000 C 116.800 139.780,116.440 139.600,116.000 139.600 C 115.560 139.600,115.200 139.420,115.200 139.200 C 115.200 138.945,111.875 138.800,106.024 138.800 C 100.337 138.800,96.753 138.952,96.600 139.200 M133.200 164.000 C 133.200 164.220,132.696 164.400,132.080 164.400 C 130.864 164.400,128.808 165.216,128.803 165.700 C 128.801 165.865,128.599 166.000,128.353 166.000 C 127.803 166.000,125.693 168.340,125.377 169.300 C 125.159 169.961,122.526 170.000,77.573 170.000 C 46.124 170.000,30.000 170.136,30.000 170.400 C 30.000 170.620,29.595 170.800,29.100 170.800 C 25.111 170.803,23.641 178.738,27.008 182.100 C 27.613 182.705,28.535 183.200,29.055 183.200 C 29.575 183.200,30.000 183.380,30.000 183.600 C 30.000 183.864,44.467 184.000,72.600 184.000 C 100.733 184.000,115.200 184.136,115.200 184.400 C 115.200 184.620,115.020 184.800,114.800 184.800 C 112.714 184.800,114.772 186.629,124.139 193.101 C 125.492 194.036,126.884 195.026,127.232 195.301 C 127.579 195.575,128.144 195.980,128.487 196.200 C 129.168 196.637,135.849 201.310,143.400 206.631 C 146.040 208.491,149.705 211.045,151.544 212.307 C 153.383 213.568,155.093 214.790,155.344 215.022 C 155.595 215.254,156.970 216.235,158.400 217.201 C 160.974 218.941,170.414 225.588,171.632 226.518 C 171.979 226.783,172.541 227.180,172.880 227.400 C 184.635 235.019,192.331 241.487,194.910 245.914 C 198.803 252.600,199.197 255.039,199.212 272.525 C 199.227 289.371,199.361 290.128,202.800 292.720 C 203.790 293.467,205.063 294.465,205.628 294.939 C 206.194 295.412,206.946 295.980,207.299 296.200 C 207.652 296.420,214.559 301.585,222.648 307.678 C 242.500 322.632,246.341 324.504,259.400 325.597 C 261.820 325.800,264.362 326.080,265.049 326.221 C 266.243 326.464,266.385 326.346,268.245 323.575 C 276.308 311.557,289.616 302.483,303.400 299.605 C 304.720 299.329,306.367 298.856,307.060 298.552 C 307.754 298.248,309.228 298.000,310.337 298.000 C 311.446 298.000,312.464 297.820,312.600 297.600 C 312.763 297.336,307.945 297.200,298.447 297.200 C 289.279 297.200,283.957 297.055,283.800 296.800 C 283.664 296.580,282.944 296.400,282.200 296.400 C 281.456 296.400,280.736 296.220,280.600 296.000 C 280.464 295.780,279.913 295.600,279.376 295.600 C 278.839 295.600,278.400 295.464,278.400 295.297 C 278.400 295.131,277.670 294.767,276.778 294.489 C 275.886 294.210,274.450 293.536,273.586 292.991 C 272.722 292.446,271.818 292.000,271.577 292.000 C 271.335 292.000,270.446 291.280,269.600 290.400 C 268.754 289.520,267.914 288.798,267.731 288.796 C 267.549 288.794,266.950 288.219,266.400 287.517 C 265.850 286.816,264.860 285.691,264.200 285.018 C 263.540 284.345,262.745 283.300,262.432 282.697 C 262.120 282.094,261.715 281.600,261.532 281.600 C 261.350 281.600,261.200 281.240,261.200 280.800 C 261.200 280.360,261.054 280.000,260.875 280.000 C 260.696 280.000,260.302 279.370,260.000 278.600 C 259.293 276.798,260.231 276.734,238.756 280.055 C 233.777 280.825,230.400 278.459,230.400 274.200 C 230.400 270.774,232.610 268.524,236.549 267.940 C 241.540 267.201,244.783 266.719,247.200 266.356 C 248.630 266.141,250.610 265.860,251.600 265.731 C 254.122 265.401,255.618 263.200,254.000 262.200 C 253.780 262.064,253.600 261.524,253.600 261.000 C 253.600 260.476,253.420 259.936,253.200 259.800 C 252.980 259.664,252.800 259.113,252.800 258.576 C 252.800 258.039,252.620 257.600,252.400 257.600 C 252.180 257.600,252.000 257.240,252.000 256.800 C 252.000 255.587,251.593 255.601,241.200 257.191 C 239.770 257.410,236.816 257.861,234.635 258.194 C 226.393 259.453,222.800 257.803,222.800 252.758 C 222.800 248.409,225.407 246.949,235.600 245.586 C 237.470 245.337,239.755 244.967,240.677 244.766 C 241.600 244.565,242.847 244.400,243.449 244.400 C 245.004 244.400,247.200 243.534,247.200 242.920 C 247.200 242.634,247.020 242.400,246.800 242.400 C 246.580 242.400,246.400 241.950,246.400 241.400 C 246.400 240.850,246.220 240.400,246.000 240.400 C 245.780 240.400,245.600 239.860,245.600 239.200 C 245.600 238.540,245.420 238.000,245.200 238.000 C 244.980 238.000,244.800 237.460,244.800 236.800 C 244.800 236.140,244.620 235.600,244.400 235.600 C 244.180 235.600,244.000 235.057,244.000 234.392 C 244.000 233.180,242.778 232.996,241.400 234.002 C 240.994 234.299,238.212 234.820,232.800 235.611 C 231.150 235.852,228.810 236.211,227.600 236.409 C 219.944 237.661,218.782 237.754,217.340 237.233 C 210.758 234.853,211.915 226.531,219.008 225.242 C 221.496 224.789,233.058 223.058,236.680 222.596 C 237.824 222.450,238.935 222.119,239.150 221.860 C 239.571 221.353,238.848 218.400,238.302 218.400 C 238.136 218.400,238.000 217.860,238.000 217.200 C 238.000 216.540,237.820 216.000,237.600 216.000 C 237.380 216.000,237.200 215.460,237.200 214.800 C 237.200 214.140,237.020 213.600,236.800 213.600 C 236.580 213.600,236.400 213.161,236.400 212.624 C 236.400 212.087,236.220 211.536,236.000 211.400 C 235.780 211.264,235.600 210.713,235.600 210.176 C 235.600 209.639,235.420 209.200,235.200 209.200 C 234.980 209.200,234.800 208.851,234.800 208.424 C 234.800 207.997,234.620 207.536,234.400 207.400 C 234.180 207.264,234.000 206.713,234.000 206.176 C 234.000 205.639,233.820 205.200,233.600 205.200 C 233.380 205.200,233.200 204.660,233.200 204.000 C 233.200 203.340,233.020 202.800,232.800 202.800 C 232.580 202.800,232.400 202.260,232.400 201.600 C 232.400 200.940,232.220 200.400,232.000 200.400 C 231.780 200.400,231.600 199.860,231.600 199.200 C 231.600 198.540,231.420 198.000,231.200 198.000 C 230.980 198.000,230.800 197.640,230.800 197.200 C 230.800 196.760,230.620 196.400,230.400 196.400 C 230.180 196.400,230.000 196.040,230.000 195.600 C 230.000 195.160,229.820 194.800,229.600 194.800 C 229.380 194.800,229.200 194.596,229.200 194.347 C 229.200 193.780,227.754 192.503,226.752 192.185 C 226.339 192.054,226.000 191.778,226.000 191.573 C 226.000 191.368,225.640 191.200,225.200 191.200 C 224.760 191.200,224.400 191.020,224.400 190.800 C 224.400 190.177,218.496 190.309,217.262 190.959 C 213.365 193.013,192.770 192.669,183.600 190.397 C 182.830 190.207,181.300 189.842,180.200 189.588 C 179.100 189.334,177.840 188.987,177.400 188.818 C 176.960 188.649,175.880 188.293,175.000 188.027 C 172.469 187.261,169.212 186.011,166.482 184.757 C 165.097 184.121,163.892 183.600,163.804 183.600 C 160.789 183.600,142.416 169.182,141.855 166.376 C 141.688 165.539,141.386 165.200,140.810 165.200 C 140.364 165.200,140.000 165.020,140.000 164.800 C 140.000 164.580,139.381 164.400,138.624 164.400 C 137.867 164.400,137.136 164.220,137.000 164.000 C 136.864 163.780,135.953 163.600,134.976 163.600 C 133.999 163.600,133.200 163.780,133.200 164.000 M288.800 180.400 C 288.800 180.620,288.522 180.800,288.182 180.800 C 287.382 180.800,285.600 182.582,285.600 183.382 C 285.600 183.722,285.420 184.000,285.200 184.000 C 284.971 184.000,284.800 185.200,284.800 186.800 C 284.800 188.400,284.971 189.600,285.200 189.600 C 285.420 189.600,285.600 189.826,285.600 190.103 C 285.600 190.379,286.236 191.189,287.013 191.903 L 288.427 193.200 301.013 193.200 C 309.138 193.200,313.600 193.058,313.600 192.800 C 313.600 192.580,313.861 192.400,314.180 192.400 C 315.646 192.400,316.800 189.868,316.800 186.649 C 316.800 183.394,316.058 182.098,313.280 180.500 C 312.177 179.866,288.800 179.770,288.800 180.400 M101.536 204.800 C 101.244 205.460,100.890 206.000,100.751 206.000 C 100.611 206.000,100.273 206.540,100.000 207.200 C 99.727 207.860,99.390 208.401,99.251 208.402 C 99.113 208.403,98.370 209.392,97.600 210.600 C 96.830 211.808,96.065 212.797,95.900 212.798 C 95.735 212.799,95.598 213.025,95.595 213.300 C 95.592 213.575,95.231 214.250,94.792 214.800 C 93.401 216.546,92.000 218.818,92.000 219.329 C 92.000 219.601,91.640 220.083,91.200 220.400 C 90.760 220.717,90.400 221.257,90.400 221.600 C 90.400 221.943,90.040 222.483,89.600 222.800 C 89.160 223.117,88.800 223.657,88.800 224.000 C 88.800 224.343,88.440 224.883,88.000 225.200 C 87.560 225.517,87.200 226.007,87.200 226.288 C 87.200 226.570,87.050 226.800,86.868 226.800 C 86.685 226.800,86.280 227.295,85.968 227.900 C 85.655 228.505,85.085 229.349,84.700 229.775 C 84.315 230.202,84.000 230.747,84.000 230.987 C 84.000 231.227,83.640 231.683,83.200 232.000 C 82.760 232.317,82.400 232.857,82.400 233.200 C 82.400 233.543,82.040 234.083,81.600 234.400 C 81.160 234.717,80.800 235.257,80.800 235.600 C 80.800 235.943,80.440 236.483,80.000 236.800 C 79.560 237.117,79.200 237.657,79.200 238.000 C 79.200 238.343,78.840 238.883,78.400 239.200 C 77.960 239.517,77.600 240.082,77.600 240.455 C 77.600 240.828,77.465 241.193,77.300 241.267 C 76.234 241.741,74.340 245.200,75.146 245.200 C 75.337 245.200,75.580 246.415,75.686 247.900 C 76.023 252.591,76.990 253.853,84.756 259.744 C 89.932 263.671,89.673 263.566,90.614 262.100 C 100.866 246.120,105.243 244.812,117.491 254.069 C 120.741 256.526,123.490 258.649,123.600 258.787 C 123.710 258.925,124.430 259.471,125.200 260.000 C 125.970 260.529,126.690 261.065,126.800 261.191 C 126.910 261.317,129.520 263.302,132.600 265.602 C 141.930 272.568,144.463 275.379,146.944 281.514 C 149.481 287.786,148.575 297.843,144.983 303.291 C 143.641 305.327,143.594 305.226,147.236 308.072 C 149.015 309.462,151.507 311.410,152.772 312.400 C 154.038 313.390,155.667 314.650,156.393 315.200 C 157.119 315.750,160.792 318.585,164.556 321.500 C 168.320 324.415,172.630 327.745,174.134 328.900 C 175.638 330.055,177.198 331.270,177.601 331.600 C 178.004 331.930,181.611 334.720,185.617 337.800 C 189.622 340.880,194.378 344.570,196.186 346.000 C 197.993 347.430,200.067 349.050,200.795 349.600 C 201.522 350.150,204.566 352.496,207.559 354.813 C 212.695 358.790,216.079 361.294,217.541 362.200 C 217.896 362.420,218.910 363.058,219.793 363.619 C 228.731 369.286,240.791 372.701,252.600 372.909 L 257.800 373.000 258.062 362.000 C 258.206 355.950,258.439 349.979,258.578 348.732 C 258.875 346.082,259.048 346.198,254.200 345.802 C 252.440 345.659,250.370 345.386,249.600 345.196 C 242.124 343.353,240.517 342.875,238.705 341.953 C 238.323 341.759,237.783 341.599,237.505 341.597 C 236.774 341.594,227.978 337.095,225.719 335.568 C 223.890 334.332,194.297 312.244,193.343 311.403 C 193.092 311.181,191.742 310.114,190.343 309.030 C 185.989 305.657,182.216 300.537,180.595 295.800 C 178.921 290.909,178.829 289.828,178.808 274.800 C 178.794 264.195,178.651 259.817,178.289 258.800 C 177.596 256.856,176.491 255.118,175.466 254.358 C 174.288 253.485,164.144 246.370,160.200 243.650 C 158.440 242.436,156.910 241.332,156.800 241.197 C 156.690 241.062,154.890 239.781,152.800 238.350 C 150.710 236.920,146.480 233.972,143.400 231.799 C 140.320 229.627,136.360 226.858,134.600 225.646 C 132.840 224.434,131.310 223.333,131.200 223.200 C 131.090 223.067,129.560 221.968,127.800 220.760 C 126.040 219.551,123.340 217.679,121.800 216.600 C 120.260 215.521,117.650 213.694,116.000 212.541 C 114.350 211.387,112.820 210.289,112.600 210.101 C 112.380 209.912,110.760 208.793,109.000 207.613 C 107.240 206.434,105.291 205.049,104.669 204.535 C 103.134 203.265,102.179 203.346,101.536 204.800 M308.400 222.000 C 308.400 222.220,307.995 222.400,307.500 222.400 C 306.404 222.401,304.400 224.047,304.400 224.947 C 304.400 225.306,304.220 225.600,304.000 225.600 C 303.188 225.600,303.528 230.972,304.400 231.908 C 304.840 232.380,305.200 232.942,305.200 233.156 C 305.200 233.371,305.560 233.660,306.000 233.800 C 306.440 233.940,306.800 234.222,306.800 234.427 C 306.800 234.632,307.340 234.800,308.000 234.800 C 308.660 234.800,309.200 234.980,309.200 235.200 C 309.200 235.463,318.267 235.600,335.600 235.600 C 352.933 235.600,362.000 235.463,362.000 235.200 C 362.000 234.980,362.540 234.800,363.200 234.800 C 363.860 234.800,364.400 234.620,364.400 234.400 C 364.400 234.180,364.660 234.000,364.977 234.000 C 365.295 234.000,365.874 233.460,366.264 232.800 C 366.654 232.140,367.114 231.600,367.286 231.600 C 367.459 231.600,367.600 230.250,367.600 228.600 C 367.600 226.867,367.431 225.600,367.200 225.600 C 366.980 225.600,366.800 225.322,366.800 224.982 C 366.800 224.010,364.941 222.400,363.818 222.400 C 363.258 222.400,362.800 222.220,362.800 222.000 C 362.800 221.737,353.467 221.600,335.600 221.600 C 317.733 221.600,308.400 221.737,308.400 222.000 " stroke="none" fill="#25a4fb" fill-rule="evenodd"></path><path id="path2" d="M216.500 0.657 C 215.785 1.010,215.200 1.457,215.200 1.650 C 215.200 1.842,214.957 2.000,214.659 2.000 C 214.362 2.000,213.594 2.495,212.952 3.100 C 212.311 3.705,211.300 4.452,210.707 4.760 C 210.113 5.068,209.722 5.473,209.837 5.660 C 209.953 5.847,209.737 6.000,209.357 6.000 C 208.977 6.000,208.780 6.114,208.919 6.253 C 209.182 6.515,206.940 8.800,206.419 8.800 C 206.038 8.800,204.400 10.215,204.400 10.544 C 204.400 10.682,203.320 11.892,202.000 13.232 C 200.680 14.573,199.600 15.884,199.600 16.147 C 199.600 16.409,199.240 16.883,198.800 17.200 C 198.360 17.517,198.000 17.973,198.000 18.213 C 198.000 18.453,197.676 18.998,197.280 19.425 C 196.884 19.851,196.119 21.010,195.580 22.000 C 195.041 22.990,194.490 23.890,194.356 24.000 C 193.943 24.338,192.631 26.982,192.718 27.300 C 192.763 27.465,192.620 27.600,192.400 27.600 C 192.180 27.600,192.000 27.960,192.000 28.400 C 192.000 28.840,191.820 29.200,191.600 29.200 C 191.380 29.200,191.200 29.560,191.200 30.000 C 191.200 30.440,191.020 30.800,190.800 30.800 C 190.580 30.800,190.400 31.160,190.400 31.600 C 190.400 32.040,190.220 32.400,190.000 32.400 C 189.780 32.400,189.600 32.760,189.600 33.200 C 189.600 33.640,189.420 34.000,189.200 34.000 C 188.980 34.000,188.800 34.349,188.800 34.776 C 188.800 35.203,188.620 35.664,188.400 35.800 C 188.180 35.936,188.000 36.487,188.000 37.024 L 188.000 38.000 148.387 38.000 L 108.773 38.000 107.387 39.387 C 106.624 40.149,106.000 41.049,106.000 41.387 C 106.000 41.724,105.820 42.000,105.600 42.000 C 105.374 42.000,105.200 43.133,105.200 44.600 C 105.200 46.067,105.374 47.200,105.600 47.200 C 105.820 47.200,106.000 47.478,106.000 47.818 C 106.000 48.618,107.782 50.400,108.582 50.400 C 108.922 50.400,109.200 50.580,109.200 50.800 C 109.200 51.064,121.667 51.200,145.800 51.200 C 182.133 51.200,182.400 51.206,182.400 52.000 C 182.400 52.440,182.220 52.800,182.000 52.800 C 181.780 52.800,181.600 53.329,181.600 53.976 C 181.600 54.623,181.420 55.264,181.200 55.400 C 180.980 55.536,180.800 56.087,180.800 56.624 C 180.800 57.161,180.620 57.600,180.400 57.600 C 180.180 57.600,180.000 58.129,180.000 58.776 C 180.000 59.423,179.820 60.064,179.600 60.200 C 179.380 60.336,179.200 60.876,179.200 61.400 C 179.200 61.924,179.020 62.464,178.800 62.600 C 178.580 62.736,178.400 63.341,178.400 63.944 C 178.400 64.547,178.249 65.211,178.064 65.420 C 177.880 65.629,177.490 66.880,177.197 68.200 C 176.905 69.520,176.490 70.829,176.276 71.110 C 176.061 71.390,175.995 71.729,176.129 71.862 C 176.263 71.996,176.207 72.414,176.005 72.791 C 175.576 73.592,175.187 75.196,174.912 77.298 C 174.805 78.122,174.555 78.696,174.358 78.574 C 174.161 78.452,174.000 79.083,174.000 79.976 C 174.000 80.869,173.820 81.600,173.600 81.600 C 173.380 81.600,173.200 82.140,173.200 82.800 C 173.200 83.460,173.020 84.000,172.800 84.000 C 172.580 84.000,172.400 84.720,172.400 85.600 C 172.400 86.480,172.220 87.200,172.000 87.200 C 171.780 87.200,171.600 87.740,171.600 88.400 C 171.600 89.060,171.420 89.600,171.200 89.600 C 170.980 89.600,170.800 90.140,170.800 90.800 C 170.800 91.460,170.620 92.000,170.400 92.000 C 170.180 92.000,170.000 92.630,170.000 93.400 C 170.000 94.170,169.820 94.800,169.600 94.800 C 169.380 94.800,169.200 95.340,169.200 96.000 C 169.200 96.660,169.020 97.200,168.800 97.200 C 168.580 97.200,168.400 97.819,168.400 98.576 C 168.400 99.333,168.220 100.064,168.000 100.200 C 167.780 100.336,167.600 100.977,167.600 101.624 C 167.600 102.271,167.420 102.800,167.200 102.800 C 166.980 102.800,166.800 103.340,166.800 104.000 C 166.800 104.660,166.620 105.200,166.400 105.200 C 166.180 105.200,166.000 105.740,166.000 106.400 C 166.000 107.060,165.820 107.600,165.600 107.600 C 165.380 107.600,165.200 108.140,165.200 108.800 C 165.200 109.460,165.020 110.000,164.800 110.000 C 164.580 110.000,164.400 110.439,164.400 110.976 C 164.400 111.513,164.220 112.064,164.000 112.200 C 163.780 112.336,163.600 112.966,163.600 113.600 C 163.600 114.234,163.420 114.864,163.200 115.000 C 162.980 115.136,162.800 115.676,162.800 116.200 C 162.800 116.724,162.656 117.242,162.479 117.351 C 162.303 117.460,161.907 118.472,161.600 119.600 C 161.293 120.728,160.897 121.740,160.721 121.849 C 160.544 121.958,160.400 122.399,160.400 122.829 C 160.400 123.259,160.226 123.923,160.013 124.305 C 159.486 125.249,158.400 128.690,158.400 129.414 C 158.400 129.736,158.220 130.000,158.000 130.000 C 157.780 130.000,157.600 130.540,157.600 131.200 C 157.600 131.860,157.420 132.400,157.200 132.400 C 156.980 132.400,156.800 132.850,156.800 133.400 C 156.800 133.950,156.620 134.400,156.400 134.400 C 156.180 134.400,156.000 134.850,156.000 135.400 C 156.000 135.950,155.820 136.400,155.600 136.400 C 155.380 136.400,155.200 136.839,155.200 137.376 C 155.200 137.913,155.020 138.464,154.800 138.600 C 154.580 138.736,154.400 139.197,154.400 139.624 C 154.400 140.051,154.220 140.400,154.000 140.400 C 153.780 140.400,153.600 140.760,153.600 141.200 C 153.600 141.640,153.420 142.000,153.200 142.000 C 152.980 142.000,152.800 142.324,152.800 142.720 C 152.800 143.614,151.906 145.593,151.500 145.597 C 151.335 145.599,151.200 145.949,151.200 146.376 C 151.200 146.803,151.020 147.264,150.800 147.400 C 150.580 147.536,150.400 148.087,150.400 148.624 C 150.400 149.161,150.220 149.600,150.000 149.600 C 149.780 149.600,149.600 149.960,149.600 150.400 C 149.600 150.840,149.420 151.200,149.200 151.200 C 148.980 151.200,148.800 151.560,148.800 152.000 C 148.800 152.440,148.620 152.800,148.400 152.800 C 148.180 152.800,148.000 153.160,148.000 153.600 C 148.000 154.040,147.820 154.400,147.600 154.400 C 147.380 154.400,147.200 154.645,147.200 154.944 C 147.200 155.243,146.675 156.548,146.033 157.844 C 145.391 159.140,144.627 160.785,144.335 161.500 C 144.043 162.215,143.669 162.800,143.502 162.800 C 143.336 162.800,143.194 163.115,143.187 163.500 C 143.180 163.885,142.929 164.523,142.630 164.919 C 141.615 166.257,145.167 170.549,150.726 174.700 C 151.536 175.305,152.548 176.115,152.975 176.500 C 153.402 176.885,153.987 177.200,154.275 177.200 C 154.564 177.200,154.800 177.346,154.800 177.524 C 154.800 178.608,168.194 185.344,174.200 187.280 C 186.013 191.087,198.772 192.455,212.000 191.334 C 217.585 190.861,218.601 190.409,219.959 187.800 C 220.532 186.700,221.135 185.740,221.300 185.667 C 221.465 185.593,221.600 185.188,221.600 184.767 C 221.600 184.345,221.745 184.000,221.921 184.000 C 222.098 184.000,222.683 183.103,223.221 182.006 C 223.760 180.910,224.335 180.010,224.500 180.006 C 224.665 180.003,224.800 179.653,224.800 179.229 C 224.800 178.804,225.070 178.187,225.400 177.857 C 225.730 177.527,226.000 176.974,226.000 176.629 C 226.000 176.283,226.180 176.000,226.400 176.000 C 226.620 176.000,226.800 175.730,226.800 175.400 C 226.800 175.070,226.980 174.800,227.200 174.800 C 227.420 174.800,227.600 174.530,227.600 174.200 C 227.600 173.870,227.780 173.600,228.000 173.600 C 228.220 173.600,228.400 173.330,228.400 173.000 C 228.400 172.670,228.580 172.400,228.800 172.400 C 229.020 172.400,229.200 172.080,229.200 171.688 C 229.200 171.297,229.560 170.717,230.000 170.400 C 230.440 170.083,230.800 169.586,230.800 169.295 C 230.800 169.004,231.160 168.380,231.600 167.908 C 232.040 167.436,232.400 166.813,232.400 166.525 C 232.400 166.236,232.580 166.000,232.800 166.000 C 233.020 166.000,233.200 165.680,233.200 165.288 C 233.200 164.897,233.560 164.317,234.000 164.000 C 234.440 163.683,234.800 163.143,234.800 162.800 C 234.800 162.457,235.160 161.917,235.600 161.600 C 236.040 161.283,236.400 160.786,236.400 160.495 C 236.400 160.204,236.731 159.611,237.136 159.177 C 237.541 158.742,238.126 157.895,238.436 157.293 C 238.746 156.692,239.315 155.851,239.700 155.425 C 240.085 154.998,240.400 154.413,240.400 154.125 C 240.400 153.836,240.577 153.600,240.792 153.600 C 241.008 153.600,241.307 153.105,241.456 152.500 C 241.606 151.895,242.059 151.109,242.464 150.753 C 242.869 150.397,243.200 149.852,243.200 149.541 C 243.200 149.231,243.560 148.717,244.000 148.400 C 244.440 148.083,244.800 147.543,244.800 147.200 C 244.800 146.857,245.160 146.317,245.600 146.000 C 246.040 145.683,246.400 145.143,246.400 144.800 C 246.400 144.457,246.760 143.917,247.200 143.600 C 247.640 143.283,248.000 142.746,248.000 142.408 C 248.000 142.069,248.360 141.568,248.800 141.293 C 249.240 141.018,249.600 140.564,249.600 140.285 C 249.600 140.005,249.960 139.517,250.400 139.200 C 250.840 138.883,251.200 138.438,251.201 138.212 C 251.201 137.985,251.741 137.170,252.400 136.400 C 253.059 135.630,253.599 134.815,253.599 134.588 C 253.600 134.362,253.950 133.924,254.379 133.615 C 254.807 133.307,255.073 132.919,254.971 132.753 C 254.869 132.587,255.238 131.998,255.792 131.444 C 256.347 130.890,256.800 130.293,256.800 130.118 C 256.801 129.943,257.251 129.277,257.800 128.638 C 258.350 127.999,258.800 127.237,258.800 126.945 C 258.800 126.452,259.663 125.351,261.900 122.987 C 262.395 122.464,262.800 121.830,262.800 121.579 C 262.800 121.327,263.340 120.617,264.000 120.000 C 264.660 119.383,265.200 118.680,265.200 118.436 C 265.200 118.192,265.740 117.428,266.400 116.737 C 267.060 116.046,267.600 115.278,267.600 115.029 C 267.600 114.780,267.960 114.317,268.400 114.000 C 268.840 113.683,269.200 113.220,269.200 112.971 C 269.200 112.722,269.740 111.954,270.400 111.263 C 271.060 110.572,271.600 109.736,271.600 109.404 C 271.600 109.072,271.759 108.800,271.953 108.800 C 272.148 108.800,272.913 107.978,273.653 106.972 C 274.394 105.967,275.405 104.716,275.900 104.191 C 276.395 103.666,276.800 103.030,276.800 102.779 C 276.800 102.527,277.340 101.817,278.000 101.200 C 278.660 100.583,279.200 99.875,279.200 99.626 C 279.200 99.377,279.830 98.543,280.600 97.773 C 281.370 97.003,282.000 96.205,282.000 96.000 C 282.000 95.795,282.630 94.997,283.400 94.227 C 284.170 93.457,284.800 92.563,284.800 92.240 C 284.800 91.918,285.131 91.549,285.536 91.420 C 285.941 91.292,286.511 90.740,286.804 90.193 C 287.096 89.647,287.485 89.200,287.668 89.200 C 287.850 89.200,288.000 89.018,288.000 88.796 C 288.000 88.574,288.558 87.809,289.240 87.096 C 289.923 86.383,290.759 85.262,291.100 84.605 C 291.440 83.948,292.232 82.931,292.859 82.345 C 293.487 81.758,294.000 81.070,294.000 80.814 C 294.000 80.558,294.900 79.471,296.000 78.400 C 297.100 77.329,298.000 76.182,298.000 75.853 C 298.000 75.523,298.315 75.147,298.700 75.017 C 299.085 74.887,300.030 73.935,300.800 72.902 C 301.570 71.869,302.875 70.322,303.700 69.464 C 304.525 68.606,305.200 67.739,305.200 67.538 C 305.200 67.338,305.785 66.577,306.500 65.848 C 308.505 63.804,309.600 62.435,309.600 61.972 C 309.600 61.741,310.680 60.507,312.000 59.231 C 313.320 57.956,314.400 56.798,314.400 56.659 C 314.400 56.519,315.480 55.308,316.800 53.968 C 318.120 52.627,319.200 51.362,319.200 51.156 C 319.200 50.951,320.145 49.825,321.300 48.655 C 324.133 45.785,325.198 44.490,325.212 43.897 C 325.219 43.624,325.772 42.950,326.441 42.400 C 328.840 40.429,332.400 36.711,332.400 36.176 C 332.400 36.058,333.615 34.755,335.101 33.281 C 336.587 31.806,338.430 29.790,339.197 28.800 C 339.965 27.810,340.775 26.766,340.996 26.481 C 341.218 26.195,341.635 25.745,341.922 25.481 C 345.053 22.593,350.419 17.106,351.191 16.000 C 351.729 15.230,352.627 14.150,353.186 13.600 C 354.875 11.939,356.170 5.200,354.800 5.200 C 354.580 5.200,354.400 4.840,354.400 4.400 C 354.400 3.960,354.220 3.600,354.000 3.600 C 353.780 3.600,353.600 3.322,353.600 2.982 C 353.600 2.642,353.113 1.877,352.518 1.282 L 351.436 0.200 284.618 0.107 C 223.908 0.022,217.681 0.072,216.500 0.657 M72.400 64.702 C 72.400 64.869,71.905 65.226,71.300 65.497 C 70.253 65.966,69.200 67.561,69.200 68.680 C 69.200 68.966,69.020 69.200,68.800 69.200 C 68.580 69.200,68.400 70.100,68.400 71.200 C 68.400 72.300,68.580 73.200,68.800 73.200 C 69.020 73.200,69.200 73.568,69.200 74.018 C 69.200 74.867,70.405 76.234,71.917 77.100 C 73.037 77.742,135.600 77.840,135.600 77.200 C 135.600 76.980,135.894 76.800,136.253 76.800 C 137.063 76.800,138.799 74.839,138.800 73.924 C 138.800 73.552,138.944 73.158,139.120 73.049 C 139.607 72.748,139.686 69.700,139.214 69.409 C 138.986 69.268,138.800 68.803,138.800 68.376 C 138.800 67.949,138.620 67.600,138.400 67.600 C 138.180 67.600,138.000 67.324,138.000 66.987 C 138.000 66.651,137.685 66.255,137.300 66.108 C 136.915 65.961,136.251 65.516,135.825 65.120 C 135.007 64.361,72.400 63.948,72.400 64.702 M113.527 188.600 C 113.277 189.150,112.920 189.600,112.736 189.600 C 112.551 189.600,112.400 189.870,112.400 190.200 C 112.400 190.530,112.220 190.800,112.000 190.800 C 111.780 190.800,111.600 191.070,111.600 191.400 C 111.600 191.730,111.420 192.000,111.200 192.000 C 110.980 192.000,110.800 192.289,110.800 192.643 C 110.800 193.027,110.576 193.200,110.245 193.073 C 109.856 192.923,109.751 193.090,109.892 193.630 C 110.003 194.053,109.892 194.400,109.647 194.400 C 109.401 194.400,109.200 194.670,109.200 195.000 C 109.200 195.330,109.020 195.600,108.800 195.600 C 108.580 195.600,108.400 195.870,108.400 196.200 C 108.400 196.530,108.220 196.800,108.000 196.800 C 107.780 196.800,107.600 197.070,107.600 197.400 C 107.600 197.730,107.420 198.000,107.200 198.000 C 106.980 198.000,106.800 198.230,106.800 198.512 C 106.800 198.793,106.440 199.283,106.000 199.600 C 105.560 199.917,105.200 200.457,105.200 200.800 C 105.200 201.143,104.856 201.671,104.436 201.974 C 103.318 202.780,103.740 203.354,107.140 205.658 C 108.823 206.799,110.290 207.837,110.400 207.966 C 110.510 208.095,110.890 208.380,111.245 208.600 C 111.945 209.034,117.318 212.796,121.800 215.991 C 123.340 217.088,125.860 218.856,127.400 219.920 C 133.208 223.932,135.806 225.773,136.000 226.016 C 136.110 226.154,137.910 227.412,140.000 228.811 C 142.089 230.210,143.979 231.513,144.200 231.705 C 144.638 232.089,152.432 237.581,157.200 240.866 C 158.850 242.002,160.290 243.037,160.400 243.166 C 160.510 243.295,160.892 243.580,161.249 243.800 C 162.170 244.368,166.263 247.206,171.505 250.912 C 179.565 256.609,179.200 255.527,179.200 273.749 C 179.200 298.682,180.263 300.939,198.400 314.533 C 203.130 318.078,207.090 321.082,207.200 321.208 C 207.310 321.335,208.030 321.871,208.800 322.400 C 209.570 322.929,210.290 323.467,210.400 323.596 C 210.920 324.205,223.368 333.331,226.178 335.163 C 230.090 337.713,236.463 340.824,240.200 342.006 C 241.740 342.493,243.313 343.051,243.695 343.246 C 244.077 343.441,244.694 343.600,245.066 343.600 C 245.439 343.600,246.296 343.766,246.972 343.969 C 249.347 344.684,252.234 345.168,255.651 345.426 L 259.102 345.686 259.302 344.343 C 259.848 340.669,261.614 335.575,264.102 330.494 C 264.993 328.676,265.649 327.133,265.561 327.066 C 264.999 326.638,260.700 326.000,258.375 326.000 C 256.855 326.000,254.754 325.802,253.706 325.559 C 250.528 324.825,248.641 324.325,247.800 323.995 C 247.360 323.822,246.370 323.461,245.600 323.193 C 240.601 321.452,234.385 317.514,225.200 310.270 C 224.870 310.009,219.560 306.019,213.400 301.401 C 197.457 289.451,199.111 292.731,198.775 272.400 C 198.624 263.234,198.331 255.679,198.101 255.000 C 197.877 254.340,197.453 252.990,197.160 252.000 C 195.629 246.827,191.435 241.193,186.420 237.570 C 181.186 233.790,173.177 228.145,170.400 226.280 C 168.750 225.171,167.310 224.150,167.200 224.011 C 167.090 223.871,165.560 222.761,163.800 221.544 C 162.040 220.326,157.990 217.495,154.800 215.252 C 151.610 213.009,147.650 210.249,146.000 209.119 C 144.350 207.989,142.910 206.960,142.800 206.832 C 142.690 206.705,142.301 206.420,141.935 206.200 C 141.569 205.980,138.869 204.104,135.935 202.032 C 133.001 199.960,129.160 197.269,127.400 196.053 C 125.640 194.837,124.110 193.728,124.000 193.588 C 123.890 193.447,122.148 192.227,120.129 190.876 C 118.111 189.525,116.345 188.235,116.206 188.010 C 115.700 187.190,113.999 187.565,113.527 188.600 M101.742 249.804 C 99.643 250.850,99.071 251.462,94.637 257.400 C 93.158 259.380,91.731 261.270,91.466 261.600 C 86.813 267.383,88.630 271.817,98.800 279.498 C 106.148 285.048,123.262 298.045,124.663 299.139 C 134.715 306.990,136.928 308.290,139.435 307.820 C 140.940 307.537,143.600 305.455,143.600 304.559 C 143.600 304.251,143.759 304.000,143.953 304.000 C 144.148 304.000,144.407 303.685,144.529 303.300 C 144.651 302.915,145.011 302.150,145.328 301.600 C 148.322 296.419,148.759 287.312,146.308 281.200 C 145.906 280.198,145.748 279.882,144.257 277.102 C 143.816 276.279,142.439 274.569,141.197 273.302 C 138.975 271.035,137.767 270.069,127.413 262.278 C 124.546 260.120,121.929 258.140,121.598 257.878 C 109.678 248.415,106.843 247.262,101.742 249.804 " stroke="none" fill="#f4a966" fill-rule="evenodd"></path><path id="path3" d="M89.300 264.223 C 88.698 264.877,88.614 270.238,89.200 270.600 C 89.420 270.736,89.600 271.172,89.600 271.570 C 89.600 272.387,93.081 276.132,95.200 277.595 C 95.970 278.127,96.690 278.669,96.800 278.800 C 96.910 278.931,97.630 279.471,98.400 280.000 C 99.170 280.529,99.890 281.061,100.000 281.183 C 100.110 281.304,102.360 283.009,105.000 284.970 C 107.640 286.932,109.890 288.650,110.000 288.788 C 110.110 288.926,110.830 289.471,111.600 290.000 C 112.370 290.529,113.090 291.069,113.200 291.200 C 113.310 291.331,114.030 291.871,114.800 292.400 C 115.570 292.929,116.290 293.461,116.400 293.582 C 116.510 293.703,117.680 294.611,119.000 295.600 C 120.320 296.589,121.490 297.497,121.600 297.618 C 121.710 297.739,122.430 298.274,123.200 298.806 C 123.970 299.338,124.820 299.987,125.089 300.247 C 126.694 301.801,135.322 307.789,136.634 308.258 C 138.932 309.081,143.600 307.228,143.600 305.492 C 143.600 305.286,142.974 305.667,142.209 306.339 C 138.702 309.417,136.850 308.657,124.663 299.139 C 123.262 298.045,106.148 285.048,98.800 279.498 C 90.074 272.908,88.206 270.095,89.558 265.583 C 90.109 263.742,90.047 263.413,89.300 264.223 M264.146 330.312 C 261.059 336.823,258.198 346.000,259.254 346.000 C 259.444 346.000,259.600 345.608,259.600 345.128 C 259.600 344.649,259.766 343.704,259.968 343.028 C 261.716 337.190,263.156 333.275,264.649 330.303 C 265.616 328.376,266.271 326.805,266.104 326.812 C 265.937 326.818,265.056 328.393,264.146 330.312 M352.206 373.694 C 352.110 373.972,351.980 378.340,351.916 383.400 L 351.800 392.600 350.675 394.515 C 349.517 396.483,346.325 399.172,345.124 399.190 C 344.752 399.196,344.336 399.380,344.200 399.600 C 343.900 400.085,364.883 400.104,367.600 399.620 C 368.590 399.444,369.237 399.278,369.038 399.250 C 368.839 399.223,369.192 398.756,369.823 398.214 C 370.677 397.481,371.060 397.353,371.323 397.714 C 371.555 398.034,371.595 397.951,371.439 397.470 C 371.194 396.713,372.003 395.600,372.798 395.600 C 373.072 395.600,373.152 395.280,373.000 394.800 C 372.817 394.223,372.928 394.000,373.400 394.000 C 373.871 394.000,373.983 393.777,373.801 393.204 C 373.473 392.169,373.963 391.301,374.448 392.057 C 374.650 392.371,374.755 388.557,374.698 383.000 L 374.600 373.400 363.490 373.294 C 354.810 373.211,352.342 373.298,352.206 373.694 " stroke="none" fill="#fbd59e" fill-rule="evenodd"></path><path id="path4" d="M142.025 166.632 C 141.958 168.837,160.907 183.600,163.804 183.600 C 163.892 183.600,165.097 184.121,166.482 184.757 C 169.212 186.011,172.469 187.261,175.000 188.027 C 175.880 188.293,176.960 188.649,177.400 188.818 C 177.840 188.987,179.100 189.334,180.200 189.588 C 181.300 189.842,182.830 190.207,183.600 190.397 C 192.657 192.641,214.629 192.967,217.400 190.899 L 218.200 190.302 217.400 190.602 C 213.686 191.998,196.846 191.997,188.000 190.599 C 184.187 189.997,178.053 188.521,174.200 187.280 C 168.194 185.344,154.800 178.608,154.800 177.524 C 154.800 177.346,154.564 177.200,154.275 177.200 C 153.987 177.200,153.402 176.885,152.975 176.500 C 152.548 176.115,151.552 175.317,150.761 174.726 C 148.365 172.938,142.735 167.490,142.382 166.618 C 142.051 165.801,142.051 165.801,142.025 166.632 M113.170 187.500 C 112.860 188.105,112.289 188.891,111.903 189.247 C 111.516 189.603,111.200 190.105,111.200 190.364 C 111.200 190.622,110.846 191.213,110.414 191.677 C 109.651 192.496,109.656 193.200,110.424 193.200 C 110.631 193.200,110.800 192.930,110.800 192.600 C 110.800 192.270,110.980 192.000,111.200 192.000 C 111.420 192.000,111.600 191.730,111.600 191.400 C 111.600 191.070,111.780 190.800,112.000 190.800 C 112.220 190.800,112.400 190.530,112.400 190.200 C 112.400 189.870,112.551 189.600,112.736 189.600 C 112.920 189.600,113.277 189.150,113.527 188.600 C 113.999 187.565,115.700 187.190,116.206 188.010 C 116.345 188.235,118.111 189.525,120.129 190.876 C 122.148 192.227,123.890 193.447,124.000 193.588 C 124.110 193.728,125.640 194.837,127.400 196.053 C 129.160 197.269,133.001 199.960,135.935 202.032 C 138.869 204.104,141.569 205.980,141.935 206.200 C 142.301 206.420,142.690 206.705,142.800 206.832 C 142.910 206.960,144.350 207.989,146.000 209.119 C 147.650 210.249,151.610 213.009,154.800 215.252 C 157.990 217.495,162.040 220.326,163.800 221.544 C 165.560 222.761,167.090 223.871,167.200 224.011 C 167.310 224.150,168.750 225.171,170.400 226.280 C 173.177 228.145,181.186 233.790,186.420 237.570 C 191.435 241.193,195.629 246.827,197.160 252.000 C 197.453 252.990,197.877 254.340,198.101 255.000 C 198.331 255.679,198.624 263.234,198.775 272.400 C 199.111 292.731,197.457 289.451,213.400 301.401 C 219.560 306.019,224.870 310.009,225.200 310.270 C 234.385 317.514,240.601 321.452,245.600 323.193 C 246.370 323.461,247.360 323.822,247.800 323.995 C 248.733 324.361,251.283 325.055,253.000 325.410 C 253.660 325.547,256.090 325.813,258.400 326.002 C 260.710 326.190,263.417 326.466,264.416 326.615 C 265.884 326.833,266.343 326.750,266.816 326.178 C 267.359 325.521,267.339 325.509,266.536 326.010 C 265.842 326.442,265.359 326.454,264.089 326.074 C 263.219 325.813,261.279 325.600,259.778 325.600 C 248.869 325.600,242.108 322.336,222.648 307.678 C 214.559 301.585,207.652 296.420,207.299 296.200 C 206.946 295.980,206.194 295.412,205.628 294.939 C 205.063 294.465,203.790 293.467,202.800 292.720 C 199.361 290.128,199.227 289.371,199.212 272.525 C 199.197 255.039,198.803 252.600,194.910 245.914 C 192.331 241.487,184.635 235.019,172.880 227.400 C 172.541 227.180,171.979 226.783,171.632 226.518 C 170.414 225.588,160.974 218.941,158.400 217.201 C 156.970 216.235,155.595 215.254,155.344 215.022 C 155.093 214.790,153.383 213.568,151.544 212.307 C 149.705 211.045,146.040 208.491,143.400 206.631 C 134.723 200.516,129.121 196.606,128.455 196.200 C 128.095 195.980,127.710 195.695,127.600 195.568 C 127.490 195.440,126.050 194.409,124.400 193.277 C 122.750 192.145,119.876 190.135,118.013 188.809 C 114.146 186.058,113.940 186.002,113.170 187.500 M108.701 194.300 C 108.435 194.905,107.899 195.691,107.509 196.047 C 107.119 196.403,106.800 196.948,106.800 197.259 C 106.800 197.569,106.440 198.083,106.000 198.400 C 105.560 198.717,105.200 199.207,105.200 199.488 C 105.200 199.770,105.020 200.000,104.800 200.000 C 104.580 200.000,104.400 200.188,104.400 200.417 C 104.400 200.646,104.040 201.220,103.600 201.692 C 102.561 202.808,102.592 203.269,103.757 204.000 C 105.096 204.841,112.115 209.682,112.600 210.099 C 112.820 210.289,114.350 211.387,116.000 212.541 C 117.650 213.694,120.260 215.521,121.800 216.600 C 123.340 217.679,126.040 219.551,127.800 220.760 C 129.560 221.968,131.090 223.067,131.200 223.200 C 131.310 223.333,132.840 224.434,134.600 225.646 C 136.360 226.858,140.320 229.627,143.400 231.799 C 146.480 233.972,150.710 236.920,152.800 238.350 C 154.890 239.781,156.690 241.062,156.800 241.197 C 156.910 241.332,158.440 242.436,160.200 243.650 C 164.144 246.370,174.288 253.485,175.466 254.358 C 176.491 255.118,177.596 256.856,178.289 258.800 C 178.651 259.817,178.794 264.195,178.808 274.800 C 178.829 289.828,178.921 290.909,180.595 295.800 C 182.216 300.537,185.989 305.657,190.343 309.030 C 191.742 310.114,193.092 311.181,193.343 311.403 C 194.297 312.244,223.890 334.332,225.719 335.568 C 227.978 337.095,236.774 341.594,237.505 341.597 C 237.783 341.599,238.323 341.759,238.705 341.953 C 240.517 342.875,242.124 343.353,249.600 345.196 C 250.370 345.386,252.440 345.659,254.200 345.802 C 258.331 346.139,258.715 346.263,258.920 347.319 C 259.061 348.043,259.101 348.002,259.146 347.087 C 259.211 345.750,259.188 345.741,254.400 345.225 C 252.310 345.000,249.790 344.642,248.800 344.429 C 247.810 344.217,246.460 343.930,245.800 343.791 C 245.140 343.653,244.240 343.397,243.800 343.222 C 243.360 343.048,241.740 342.503,240.200 342.013 C 236.448 340.817,230.075 337.704,226.178 335.163 C 223.368 333.331,210.920 324.205,210.400 323.596 C 210.290 323.467,209.570 322.929,208.800 322.400 C 208.030 321.871,207.310 321.335,207.200 321.208 C 207.090 321.082,203.130 318.078,198.400 314.533 C 185.927 305.184,183.434 302.442,181.004 295.400 C 179.364 290.647,179.200 288.679,179.200 273.749 C 179.200 255.527,179.565 256.609,171.505 250.912 C 166.263 247.206,162.170 244.368,161.249 243.800 C 160.892 243.580,160.510 243.295,160.400 243.166 C 160.290 243.037,158.850 242.002,157.200 240.866 C 152.432 237.581,144.638 232.089,144.200 231.705 C 143.979 231.513,142.089 230.210,140.000 228.811 C 137.910 227.412,136.110 226.154,136.000 226.016 C 135.806 225.773,133.208 223.932,127.400 219.920 C 125.860 218.856,123.340 217.088,121.800 215.991 C 117.318 212.796,111.945 209.034,111.245 208.600 C 110.890 208.380,110.510 208.095,110.400 207.966 C 110.290 207.837,108.823 206.799,107.140 205.658 C 103.740 203.354,103.318 202.780,104.436 201.974 C 104.856 201.671,105.200 201.143,105.200 200.800 C 105.200 200.457,105.560 199.917,106.000 199.600 C 106.440 199.283,106.800 198.793,106.800 198.512 C 106.800 198.230,106.980 198.000,107.200 198.000 C 107.420 198.000,107.600 197.730,107.600 197.400 C 107.600 197.070,107.780 196.800,108.000 196.800 C 108.220 196.800,108.400 196.530,108.400 196.200 C 108.400 195.870,108.580 195.600,108.800 195.600 C 109.020 195.600,109.200 195.330,109.200 195.000 C 109.200 194.670,109.380 194.400,109.600 194.400 C 109.820 194.400,110.000 194.130,110.000 193.800 C 110.000 192.817,109.219 193.118,108.701 194.300 M237.800 222.400 L 236.600 222.705 237.676 222.753 C 238.268 222.779,238.864 222.620,239.000 222.400 C 239.136 222.180,239.192 222.021,239.124 222.047 C 239.056 222.073,238.460 222.232,237.800 222.400 M232.200 223.200 L 230.600 223.486 232.000 223.503 C 232.770 223.513,233.850 223.376,234.400 223.200 C 235.685 222.788,234.499 222.788,232.200 223.200 M227.000 224.000 L 225.400 224.286 226.800 224.303 C 227.570 224.313,228.650 224.176,229.200 224.000 C 230.485 223.588,229.299 223.588,227.000 224.000 M220.705 225.083 C 221.202 225.179,221.922 225.175,222.305 225.075 C 222.687 224.975,222.280 224.896,221.400 224.901 C 220.520 224.905,220.207 224.987,220.705 225.083 M217.400 225.493 C 215.492 225.971,213.182 228.499,213.209 230.080 C 213.214 230.366,213.558 229.850,213.975 228.932 C 214.758 227.207,215.606 226.536,218.000 225.746 C 219.384 225.289,218.948 225.106,217.400 225.493 M213.217 232.800 C 213.201 233.470,214.645 236.000,215.043 236.000 C 215.183 236.000,215.101 235.763,214.860 235.472 C 214.619 235.182,214.154 234.327,213.827 233.572 C 213.499 232.818,213.225 232.470,213.217 232.800 M236.400 234.800 C 235.056 235.231,236.508 235.231,238.200 234.800 C 239.278 234.526,239.298 234.494,238.400 234.487 C 237.850 234.483,236.950 234.624,236.400 234.800 M230.800 235.600 C 229.450 235.884,229.443 235.895,230.600 235.900 C 231.260 235.903,232.340 235.768,233.000 235.600 C 234.660 235.178,232.807 235.178,230.800 235.600 M225.400 236.400 L 224.200 236.705 225.400 236.713 C 226.060 236.717,227.050 236.576,227.600 236.400 L 228.600 236.080 227.600 236.087 C 227.050 236.091,226.060 236.232,225.400 236.400 M217.344 237.294 C 217.893 237.648,220.542 237.612,222.200 237.227 C 222.956 237.052,222.195 236.958,220.144 236.974 C 218.353 236.988,217.093 237.132,217.344 237.294 M242.305 244.683 C 242.802 244.779,243.522 244.775,243.905 244.675 C 244.287 244.575,243.880 244.496,243.000 244.501 C 242.120 244.505,241.807 244.587,242.305 244.683 M74.016 246.075 C 73.567 246.557,73.200 247.097,73.200 247.275 C 73.200 247.787,73.912 247.654,74.136 247.100 C 74.472 246.273,75.117 247.543,75.398 249.582 C 75.535 250.584,76.008 251.852,76.448 252.402 L 77.248 253.400 76.564 252.003 C 76.187 251.235,75.792 249.390,75.686 247.903 C 75.476 244.976,75.260 244.739,74.016 246.075 M237.105 245.483 C 237.602 245.579,238.322 245.575,238.705 245.475 C 239.087 245.375,238.680 245.296,237.800 245.301 C 236.920 245.305,236.607 245.387,237.105 245.483 M230.000 246.420 C 229.326 246.649,229.651 246.684,231.000 246.528 C 232.100 246.401,233.075 246.231,233.167 246.149 C 233.482 245.868,230.999 246.080,230.000 246.420 M224.723 248.300 C 224.392 248.685,223.991 249.270,223.831 249.600 C 223.671 249.930,223.828 249.840,224.179 249.400 C 224.530 248.960,225.118 248.375,225.485 248.100 C 225.852 247.825,225.966 247.600,225.738 247.600 C 225.510 247.600,225.053 247.915,224.723 248.300 M72.100 248.598 C 71.584 249.185,71.426 250.000,71.829 250.000 C 72.221 250.000,73.200 248.878,73.200 248.429 C 73.200 247.840,72.700 247.917,72.100 248.598 M104.397 248.382 C 100.786 248.849,96.074 253.537,90.610 262.100 C 89.674 263.567,89.920 263.665,84.856 259.790 C 82.405 257.914,80.407 256.519,80.415 256.690 C 80.424 256.860,81.099 257.473,81.915 258.050 C 82.732 258.628,84.704 260.113,86.298 261.350 C 89.346 263.716,90.256 264.041,90.687 262.918 C 90.831 262.542,91.174 261.957,91.449 261.618 C 91.724 261.278,93.158 259.380,94.637 257.400 C 99.071 251.462,99.643 250.850,101.742 249.804 C 106.843 247.262,109.678 248.415,121.598 257.878 C 121.929 258.140,124.546 260.120,127.413 262.278 C 137.767 270.069,138.975 271.035,141.197 273.302 C 143.441 275.592,145.064 278.100,146.308 281.200 C 148.759 287.312,148.322 296.419,145.328 301.600 C 145.011 302.150,144.651 302.915,144.529 303.300 C 144.407 303.685,144.148 304.000,143.953 304.000 C 143.106 304.000,143.659 305.946,144.700 306.627 C 145.305 307.023,146.005 307.539,146.255 307.773 C 146.505 308.008,147.945 309.146,149.455 310.302 C 150.965 311.458,155.277 314.788,159.038 317.702 C 162.799 320.616,166.399 323.398,167.038 323.884 C 167.677 324.371,170.270 326.380,172.800 328.349 C 175.330 330.318,177.485 331.845,177.588 331.743 C 177.692 331.640,177.515 331.395,177.195 331.197 C 176.876 331.000,175.441 329.929,174.007 328.819 C 160.367 318.255,157.539 316.069,156.393 315.200 C 155.667 314.650,154.038 313.390,152.772 312.400 C 151.507 311.410,149.015 309.462,147.236 308.072 C 143.594 305.226,143.641 305.327,144.983 303.291 C 148.575 297.843,149.481 287.786,146.944 281.514 C 144.463 275.379,141.930 272.568,132.600 265.602 C 129.520 263.302,126.910 261.317,126.800 261.191 C 126.690 261.065,125.970 260.529,125.200 260.000 C 124.430 259.471,123.710 258.925,123.600 258.787 C 122.958 257.981,111.363 249.512,110.291 249.067 C 108.528 248.335,106.545 248.105,104.397 248.382 M70.480 251.020 C 70.193 251.345,70.076 251.799,70.218 252.029 C 70.379 252.290,70.684 252.174,71.026 251.724 C 71.994 250.447,71.522 249.839,70.480 251.020 M222.978 251.779 C 222.835 252.537,222.875 253.626,223.066 254.199 C 223.339 255.017,223.413 254.721,223.413 252.820 C 223.413 250.039,223.338 249.858,222.978 251.779 M68.860 253.442 C 68.131 254.266,68.600 254.657,69.381 253.876 C 69.721 253.536,70.000 253.154,70.000 253.029 C 70.000 252.609,69.406 252.824,68.860 253.442 M78.400 255.000 C 79.146 255.770,79.847 256.400,79.957 256.400 C 80.067 256.400,79.546 255.770,78.800 255.000 C 78.054 254.230,77.353 253.600,77.243 253.600 C 77.133 253.600,77.654 254.230,78.400 255.000 M67.298 255.800 C 67.022 256.114,66.588 256.827,66.334 257.385 C 66.080 257.943,65.720 258.400,65.536 258.400 C 65.351 258.400,65.200 258.670,65.200 259.000 C 65.200 259.330,65.020 259.600,64.800 259.600 C 64.580 259.600,64.400 259.855,64.400 260.167 C 64.400 260.478,64.175 260.814,63.900 260.912 C 63.625 261.010,63.526 261.227,63.681 261.393 C 63.984 261.719,65.200 260.687,65.200 260.104 C 65.200 259.910,65.515 259.402,65.900 258.975 C 66.285 258.549,66.855 257.705,67.168 257.100 C 67.480 256.495,67.885 256.000,68.068 256.000 C 68.250 256.000,68.400 255.820,68.400 255.600 C 68.400 255.036,67.889 255.129,67.298 255.800 M247.200 256.000 C 245.843 256.286,245.837 256.295,247.000 256.307 C 247.660 256.315,248.650 256.176,249.200 256.000 C 250.512 255.580,249.196 255.580,247.200 256.000 M224.400 256.997 C 224.400 257.851,227.216 258.792,229.600 258.734 L 232.200 258.671 229.380 258.435 C 227.706 258.296,226.121 257.912,225.480 257.491 C 224.886 257.101,224.400 256.878,224.400 256.997 M240.705 257.083 C 241.202 257.179,241.922 257.175,242.305 257.075 C 242.687 256.975,242.280 256.896,241.400 256.901 C 240.520 256.905,240.207 256.987,240.705 257.083 M235.505 257.883 C 236.002 257.979,236.722 257.975,237.105 257.875 C 237.487 257.775,237.080 257.696,236.200 257.701 C 235.320 257.705,235.007 257.787,235.505 257.883 M62.664 262.729 C 62.299 263.133,62.000 263.582,62.000 263.727 C 62.000 263.872,61.696 264.346,61.325 264.780 C 59.618 266.773,57.989 270.400,58.800 270.400 C 59.020 270.400,59.200 270.040,59.200 269.600 C 59.200 269.160,59.380 268.800,59.600 268.800 C 59.820 268.800,60.000 268.530,60.000 268.200 C 60.000 267.870,60.180 267.600,60.400 267.600 C 60.620 267.600,60.800 267.364,60.800 267.075 C 60.800 266.787,61.115 266.197,61.500 265.763 C 62.424 264.724,63.724 262.391,63.503 262.170 C 63.407 262.074,63.030 262.325,62.664 262.729 M249.600 266.000 C 248.256 266.431,249.708 266.431,251.400 266.000 C 252.478 265.726,252.498 265.694,251.600 265.687 C 251.050 265.683,250.150 265.824,249.600 266.000 M244.200 266.800 C 243.130 267.072,243.108 267.105,244.000 267.105 C 244.550 267.105,245.540 266.968,246.200 266.800 C 247.270 266.528,247.292 266.495,246.400 266.495 C 245.850 266.495,244.860 266.632,244.200 266.800 M238.800 267.600 L 237.800 267.920 238.800 267.920 C 239.350 267.920,240.250 267.776,240.800 267.600 L 241.800 267.280 240.800 267.280 C 240.250 267.280,239.350 267.424,238.800 267.600 M234.400 268.418 C 233.962 268.715,234.124 268.752,235.000 268.556 C 236.471 268.227,236.790 267.998,235.767 268.006 C 235.345 268.009,234.730 268.195,234.400 268.418 M57.879 271.096 C 57.433 271.784,57.624 277.736,58.077 277.283 C 58.274 277.086,58.383 275.501,58.318 273.762 C 58.252 271.984,58.059 270.817,57.879 271.096 M230.667 271.867 C 230.300 272.234,230.329 276.309,230.700 276.538 C 230.865 276.640,231.000 275.571,231.000 274.162 C 231.000 272.753,230.985 271.600,230.967 271.600 C 230.948 271.600,230.813 271.720,230.667 271.867 M253.000 277.600 C 251.337 278.023,252.974 278.042,255.000 277.623 C 256.345 277.345,256.409 277.292,255.400 277.293 C 254.740 277.294,253.660 277.432,253.000 277.600 M58.400 278.600 C 58.400 278.930,58.580 279.200,58.800 279.200 C 59.020 279.200,59.200 278.930,59.200 278.600 C 59.200 278.270,59.020 278.000,58.800 278.000 C 58.580 278.000,58.400 278.270,58.400 278.600 M247.600 278.413 C 246.954 278.629,247.380 278.666,248.800 278.519 C 250.010 278.394,251.075 278.226,251.167 278.146 C 251.487 277.865,248.591 278.083,247.600 278.413 M244.100 279.076 C 244.485 279.176,245.115 279.176,245.500 279.076 C 245.885 278.975,245.570 278.893,244.800 278.893 C 244.030 278.893,243.715 278.975,244.100 279.076 M59.252 280.500 C 60.146 282.175,64.000 285.485,64.000 284.578 C 64.000 284.309,59.235 279.600,58.963 279.600 C 58.858 279.600,58.988 280.005,59.252 280.500 M235.127 280.149 C 235.841 280.355,237.131 280.340,238.269 280.114 C 240.138 279.743,240.099 279.731,237.058 279.765 C 234.572 279.793,234.169 279.873,235.127 280.149 M64.400 285.053 C 64.400 285.397,66.519 287.199,66.924 287.200 C 67.102 287.200,67.119 287.408,66.962 287.662 C 66.797 287.929,66.851 288.016,67.091 287.868 C 67.318 287.727,68.127 288.104,68.887 288.706 C 69.648 289.308,70.772 290.160,71.385 290.600 C 71.999 291.040,72.920 291.805,73.432 292.300 C 73.944 292.795,74.507 293.201,74.682 293.202 C 74.857 293.203,75.596 293.762,76.324 294.445 C 77.052 295.127,77.745 295.588,77.864 295.469 C 78.152 295.181,75.352 292.400,74.774 292.400 C 74.525 292.400,73.817 291.860,73.200 291.200 C 72.583 290.540,71.812 290.000,71.485 290.000 C 71.158 290.000,70.471 289.473,69.958 288.830 C 69.446 288.186,68.929 287.720,68.809 287.794 C 68.689 287.869,67.790 287.225,66.810 286.365 C 65.119 284.879,64.400 284.488,64.400 285.053 M78.400 295.818 C 78.400 296.211,80.353 298.000,80.782 298.000 C 81.012 298.000,81.200 298.180,81.200 298.400 C 81.200 298.620,81.404 298.800,81.653 298.800 C 81.902 298.800,82.399 299.115,82.757 299.500 C 83.760 300.578,85.126 301.244,85.405 300.792 C 85.538 300.576,85.447 300.400,85.202 300.400 C 84.957 300.400,84.181 299.861,83.478 299.202 C 82.775 298.543,82.047 298.003,81.860 298.002 C 81.674 298.001,81.017 297.460,80.400 296.800 C 79.395 295.724,78.400 295.235,78.400 295.818 M312.580 297.557 C 312.371 297.753,311.072 297.989,309.694 298.082 C 308.316 298.176,306.966 298.490,306.694 298.780 C 306.290 299.213,306.382 299.255,307.200 299.012 C 308.058 298.757,312.784 298.100,314.300 298.025 C 314.575 298.011,314.800 297.820,314.800 297.600 C 314.800 297.104,313.098 297.071,312.580 297.557 M303.400 299.600 C 302.381 300.038,303.432 300.038,304.800 299.600 C 305.604 299.343,305.643 299.277,305.000 299.268 C 304.560 299.262,303.840 299.411,303.400 299.600 M300.000 300.400 C 299.467 300.745,299.467 300.788,300.000 300.788 C 300.330 300.788,300.870 300.613,301.200 300.400 C 301.733 300.055,301.733 300.012,301.200 300.012 C 300.870 300.012,300.330 300.187,300.000 300.400 M85.600 301.418 C 85.600 301.538,86.042 302.078,86.582 302.618 C 87.999 304.036,88.770 303.830,87.400 302.400 C 86.338 301.292,85.600 300.889,85.600 301.418 M88.800 303.912 C 88.800 304.083,89.176 304.488,89.635 304.812 C 90.094 305.135,91.309 306.161,92.335 307.091 C 93.988 308.590,95.200 309.221,95.200 308.582 C 95.200 308.230,93.268 306.400,92.896 306.400 C 92.709 306.400,91.869 305.770,91.028 305.000 C 89.541 303.638,88.800 303.276,88.800 303.912 M287.800 305.600 C 287.140 306.037,286.780 306.392,287.000 306.388 C 287.401 306.382,289.576 304.823,289.200 304.812 C 289.090 304.808,288.460 305.163,287.800 305.600 M283.995 307.868 C 280.870 309.957,276.501 313.598,274.402 315.862 C 272.933 317.446,273.080 317.356,275.202 315.370 C 278.491 312.294,281.180 310.128,284.100 308.203 C 286.109 306.879,286.691 306.400,286.295 306.400 C 286.237 306.400,285.202 307.060,283.995 307.868 M95.600 309.018 C 95.600 309.411,97.553 311.200,97.982 311.200 C 98.674 311.200,98.460 310.745,97.300 309.747 C 96.240 308.835,95.600 308.561,95.600 309.018 M98.200 311.600 C 98.064 311.820,98.235 312.000,98.580 312.000 C 98.925 312.000,99.774 312.542,100.467 313.204 C 101.159 313.866,101.827 314.306,101.951 314.182 C 102.227 313.907,99.412 311.200,98.850 311.200 C 98.629 311.200,98.336 311.380,98.200 311.600 M102.800 314.639 C 102.800 314.985,105.736 317.580,106.140 317.591 C 106.326 317.596,106.983 318.140,107.600 318.800 C 108.217 319.460,108.849 320.000,109.005 320.000 C 109.263 320.000,112.637 322.672,113.931 323.901 C 114.741 324.670,116.041 325.293,116.298 325.035 C 116.425 324.909,116.155 324.489,115.698 324.103 C 113.727 322.435,113.382 322.176,113.067 322.126 C 112.884 322.097,112.211 321.607,111.571 321.037 C 110.931 320.467,110.269 320.000,110.101 320.000 C 109.933 320.000,109.031 319.280,108.097 318.400 C 107.163 317.520,106.264 316.799,106.099 316.798 C 105.935 316.797,105.225 316.257,104.522 315.598 C 103.268 314.423,102.800 314.162,102.800 314.639 M271.759 318.900 C 270.007 320.921,269.487 321.600,269.690 321.600 C 269.807 321.600,270.567 320.790,271.379 319.800 C 272.881 317.966,273.179 317.263,271.759 318.900 M116.800 325.418 C 116.800 325.832,118.849 327.684,119.067 327.467 C 119.187 327.347,118.824 326.788,118.261 326.224 C 117.265 325.228,116.800 324.972,116.800 325.418 M120.000 327.813 C 120.000 328.177,122.617 330.594,123.128 330.702 C 123.394 330.758,124.177 331.345,124.869 332.005 C 125.560 332.666,126.206 333.128,126.303 333.030 C 126.564 332.769,123.704 330.000,123.174 330.000 C 122.925 330.000,122.217 329.460,121.600 328.800 C 120.541 327.666,120.000 327.333,120.000 327.813 M179.200 333.192 C 180.572 334.418,183.509 336.709,190.100 341.698 C 191.915 343.071,193.490 344.291,193.600 344.409 C 194.475 345.344,200.800 349.960,200.800 349.665 C 200.800 349.456,200.575 349.197,200.300 349.089 C 200.025 348.981,198.247 347.657,196.349 346.146 C 186.318 338.162,176.242 330.551,179.200 333.192 M126.800 333.429 C 126.800 333.807,127.914 334.800,128.338 334.800 C 128.555 334.800,128.814 335.025,128.912 335.300 C 129.010 335.575,129.224 335.676,129.388 335.524 C 129.727 335.209,127.852 333.200,127.218 333.200 C 126.988 333.200,126.800 333.303,126.800 333.429 M130.446 336.300 C 131.050 337.234,133.188 338.945,133.438 338.695 C 133.719 338.414,131.002 335.600,130.449 335.600 C 130.109 335.600,130.108 335.778,130.446 336.300 M134.000 339.000 C 134.000 339.330,134.137 339.600,134.304 339.600 C 134.471 339.600,135.063 340.005,135.619 340.500 C 136.175 340.995,136.874 341.454,137.172 341.519 C 137.471 341.585,138.211 342.170,138.818 342.819 C 139.924 344.003,140.800 344.348,140.800 343.600 C 140.800 343.380,140.602 343.200,140.360 343.200 C 140.119 343.200,139.417 342.660,138.800 342.000 C 138.183 341.340,137.463 340.800,137.200 340.800 C 136.937 340.800,136.217 340.260,135.600 339.600 C 134.343 338.254,134.000 338.126,134.000 339.000 M141.200 344.218 C 141.200 344.632,143.249 346.484,143.467 346.267 C 143.587 346.147,143.224 345.588,142.661 345.024 C 141.665 344.028,141.200 343.772,141.200 344.218 M144.478 347.176 C 144.744 347.603,145.370 348.170,145.867 348.436 C 146.365 348.703,146.661 349.101,146.525 349.322 C 146.388 349.543,146.473 349.602,146.712 349.454 C 146.952 349.306,147.568 349.593,148.081 350.092 C 149.590 351.560,150.400 352.125,150.400 351.710 C 150.400 351.140,148.979 349.600,148.453 349.600 C 148.204 349.600,148.000 349.420,148.000 349.200 C 148.000 348.980,147.802 348.800,147.560 348.800 C 147.319 348.800,146.617 348.260,146.000 347.600 C 144.713 346.222,143.707 345.942,144.478 347.176 M258.528 350.800 C 258.528 352.230,258.601 352.815,258.689 352.100 C 258.778 351.385,258.778 350.215,258.689 349.500 C 258.601 348.785,258.528 349.370,258.528 350.800 M201.313 350.245 C 201.886 351.202,216.735 362.277,219.400 363.735 C 221.414 364.836,220.625 364.087,218.206 362.600 C 216.088 361.298,213.327 359.282,207.600 354.857 C 204.630 352.562,201.940 350.485,201.623 350.242 C 201.201 349.919,201.118 349.919,201.313 350.245 M151.200 352.218 C 151.200 352.502,153.098 354.400,153.382 354.400 C 153.837 354.400,153.570 353.719,152.784 352.875 C 152.024 352.059,151.200 351.718,151.200 352.218 M155.478 355.798 C 156.921 357.124,157.600 357.496,157.600 356.960 C 157.600 356.487,155.103 354.400,154.535 354.400 C 154.209 354.400,154.620 355.010,155.478 355.798 M257.995 364.600 L 257.800 373.000 252.400 372.945 C 249.223 372.913,247.494 373.017,248.200 373.198 C 250.341 373.746,258.001 373.663,258.221 373.089 C 258.329 372.808,258.366 368.893,258.304 364.389 L 258.191 356.200 257.995 364.600 M158.403 357.700 C 158.404 357.975,159.045 358.636,159.827 359.168 C 160.608 359.700,161.902 360.735,162.702 361.468 C 164.051 362.703,164.800 363.103,164.800 362.587 C 164.800 362.173,162.021 359.600,161.574 359.600 C 161.325 359.600,160.617 359.060,160.000 358.400 C 158.781 357.095,158.399 356.928,158.403 357.700 M165.200 363.039 C 165.200 363.374,168.130 365.979,168.518 365.991 C 168.693 365.996,169.286 366.450,169.836 367.000 C 170.386 367.550,171.046 368.000,171.302 368.000 C 171.557 368.000,171.099 367.370,170.282 366.600 C 169.466 365.830,168.619 365.200,168.399 365.200 C 168.180 365.200,168.000 365.020,168.000 364.800 C 168.000 364.580,167.773 364.400,167.496 364.400 C 167.219 364.400,166.768 364.040,166.493 363.600 C 166.028 362.856,165.200 362.496,165.200 363.039 M221.600 364.960 C 221.600 365.302,225.649 367.284,225.879 367.055 C 226.040 366.894,224.632 366.121,221.900 364.871 C 221.735 364.795,221.600 364.835,221.600 364.960 M228.400 368.400 C 228.730 368.613,229.270 368.788,229.600 368.788 C 230.133 368.788,230.133 368.745,229.600 368.400 C 229.270 368.187,228.730 368.012,228.400 368.012 C 227.867 368.012,227.867 368.055,228.400 368.400 M172.400 368.618 C 172.400 368.738,172.861 369.297,173.424 369.861 C 174.726 371.163,175.256 370.737,173.999 369.398 C 173.123 368.467,172.400 368.114,172.400 368.618 M232.800 370.000 C 233.130 370.213,233.670 370.388,234.000 370.388 C 234.533 370.388,234.533 370.345,234.000 370.000 C 233.670 369.787,233.130 369.612,232.800 369.612 C 232.267 369.612,232.267 369.655,232.800 370.000 M237.000 371.231 C 238.320 371.648,239.760 371.975,240.200 371.958 C 240.640 371.942,239.740 371.588,238.200 371.173 C 234.619 370.208,233.874 370.244,237.000 371.231 M175.600 371.170 C 175.600 371.373,176.145 371.958,176.811 372.470 C 177.476 372.981,178.493 373.805,179.069 374.300 C 179.645 374.795,180.346 375.200,180.625 375.200 C 180.905 375.200,181.214 375.425,181.312 375.700 C 181.410 375.975,181.598 376.102,181.729 375.983 C 182.159 375.592,180.226 373.734,179.100 373.456 C 178.495 373.307,178.000 373.042,178.000 372.868 C 178.000 372.406,176.435 370.800,175.984 370.800 C 175.773 370.800,175.600 370.966,175.600 371.170 M242.000 372.384 C 242.538 372.746,246.370 373.007,245.967 372.654 C 245.875 372.574,244.810 372.390,243.600 372.245 C 242.067 372.061,241.582 372.103,242.000 372.384 M182.400 376.218 C 182.400 376.632,184.449 378.484,184.667 378.267 C 184.787 378.147,184.424 377.588,183.861 377.024 C 182.865 376.028,182.400 375.772,182.400 376.218 M186.800 380.000 C 188.591 381.621,189.200 381.925,189.200 381.200 C 189.200 380.980,189.002 380.800,188.760 380.800 C 188.519 380.800,187.817 380.260,187.200 379.600 C 186.583 378.940,185.843 378.400,185.556 378.400 C 185.268 378.400,185.828 379.120,186.800 380.000 M189.600 381.818 C 189.600 382.232,191.649 384.084,191.867 383.867 C 191.987 383.747,191.624 383.188,191.061 382.624 C 190.065 381.628,189.600 381.372,189.600 381.818 M193.634 385.311 C 196.237 387.651,198.400 389.067,198.400 388.432 C 198.400 387.985,196.455 386.400,195.907 386.400 C 195.694 386.400,195.017 385.860,194.400 385.200 C 193.783 384.540,193.036 384.005,192.740 384.011 C 192.443 384.017,192.845 384.602,193.634 385.311 M199.014 388.777 C 198.771 389.171,200.420 390.514,200.747 390.187 C 200.854 390.079,200.559 389.635,200.092 389.200 C 199.625 388.764,199.140 388.574,199.014 388.777 M201.200 390.592 C 201.200 390.918,201.695 391.306,202.300 391.454 C 202.905 391.602,203.528 391.919,203.683 392.158 C 203.883 392.465,204.114 392.446,204.463 392.097 C 204.859 391.701,204.822 391.600,204.280 391.600 C 203.906 391.600,203.600 391.420,203.600 391.200 C 203.600 390.980,203.240 390.800,202.800 390.800 C 202.360 390.800,202.000 390.620,202.000 390.400 C 202.000 390.180,201.820 390.000,201.600 390.000 C 201.380 390.000,201.200 390.267,201.200 390.592 M205.200 392.800 C 205.200 393.020,205.470 393.200,205.800 393.200 C 206.130 393.200,206.400 393.020,206.400 392.800 C 206.400 392.580,206.130 392.400,205.800 392.400 C 205.470 392.400,205.200 392.580,205.200 392.800 M206.800 393.600 C 206.800 393.820,207.070 394.000,207.400 394.000 C 207.730 394.000,208.000 393.820,208.000 393.600 C 208.000 393.380,207.730 393.200,207.400 393.200 C 207.070 393.200,206.800 393.380,206.800 393.600 M208.400 394.400 C 208.400 394.620,208.670 394.800,209.000 394.800 C 209.330 394.800,209.600 394.620,209.600 394.400 C 209.600 394.180,209.330 394.000,209.000 394.000 C 208.670 394.000,208.400 394.180,208.400 394.400 M209.800 395.200 C 209.660 395.427,209.996 395.600,210.576 395.600 C 211.139 395.600,211.600 395.420,211.600 395.200 C 211.600 394.980,211.251 394.800,210.824 394.800 C 210.397 394.800,209.936 394.980,209.800 395.200 M212.000 396.000 C 212.000 396.220,212.360 396.400,212.800 396.400 C 213.240 396.400,213.600 396.580,213.600 396.800 C 213.600 397.020,214.050 397.200,214.600 397.200 C 215.150 397.200,215.600 397.020,215.600 396.800 C 215.600 396.580,215.150 396.400,214.600 396.400 C 214.050 396.400,213.600 396.220,213.600 396.000 C 213.600 395.780,213.240 395.600,212.800 395.600 C 212.360 395.600,212.000 395.780,212.000 396.000 M216.200 397.600 C 216.336 397.820,216.887 398.000,217.424 398.000 C 217.961 398.000,218.400 397.820,218.400 397.600 C 218.400 397.380,217.849 397.200,217.176 397.200 C 216.463 397.200,216.056 397.367,216.200 397.600 M219.200 398.400 C 219.200 398.620,219.650 398.800,220.200 398.800 C 220.750 398.800,221.200 398.620,221.200 398.400 C 221.200 398.180,220.750 398.000,220.200 398.000 C 219.650 398.000,219.200 398.180,219.200 398.400 M222.400 399.200 C 222.400 399.420,222.940 399.600,223.600 399.600 C 224.260 399.600,224.800 399.420,224.800 399.200 C 224.800 398.980,224.260 398.800,223.600 398.800 C 222.940 398.800,222.400 398.980,222.400 399.200 M227.300 399.887 C 227.905 399.978,228.895 399.978,229.500 399.887 C 230.105 399.795,229.610 399.720,228.400 399.720 C 227.190 399.720,226.695 399.795,227.300 399.887 " stroke="none" fill="#a0aca4" fill-rule="evenodd"></path></g></svg>